<svg width="200" height="200" viewBox="0 0 200 200" fill="none" xmlns="http://www.w3.org/2000/svg">
<path d="M88.4111 103.125C88.4111 101.125 88.2028 99.5833 87.7861 98.5C87.4528 97.6667 86.9111 97.1667 86.1611 97C85.4945 96.75 84.2861 96.625 82.5361 96.625H81.9111V81C85.1611 78.5833 89.6611 77.375 95.4111 77.375C97.9945 77.375 100.244 77.7083 102.161 78.375C104.078 78.9583 105.703 80.0417 107.036 81.625C110.036 85.2917 111.536 92.125 111.536 102.125V142H88.4111V103.125ZM123.286 103.125C123.286 101.125 123.078 99.5833 122.661 98.5C122.328 97.6667 121.786 97.1667 121.036 97C120.369 96.75 119.161 96.625 117.411 96.625H116.786C116.619 94.4583 116.369 92.2083 116.036 89.875C115.369 86.5417 114.661 84.125 113.911 82.625C117.411 79.125 122.411 77.375 128.911 77.375C135.994 77.375 140.828 79.6667 143.411 84.25C144.578 86.25 145.369 88.7083 145.786 91.625C146.203 94.4583 146.411 97.9583 146.411 102.125V142H123.286V103.125ZM53.5361 78.25H76.6611V142H53.5361V78.25Z" fill="#D97757"/>
<path d="M88.4482 49.125H111.573V142H88.4482V49.125Z" fill="#D97757"/>
</svg>
