<svg version="1.1" id="Layer_1" xmlns:x="ns_extend;" xmlns:i="ns_ai;" xmlns:graph="ns_graphs;" xmlns="http://www.w3.org/2000/svg" xmlns:xlink="http://www.w3.org/1999/xlink" x="0px" y="0px" viewBox="0 0 90.3 100" style="enable-background:new 0 0 90.3 100;" xml:space="preserve">
 <style type="text/css">
  .st0{fill:#5B627D;}
	.st1{fill:#46DB83;}
	.st2{fill:#FFFFFF;}
 </style>
 <metadata>
  <sfw xmlns="ns_sfw;">
   <slices>
   </slices>
   <sliceSourceBounds bottomLeftOrigin="true" height="100" width="90.3" x="22.4" y="-179.9">
   </sliceSourceBounds>
  </sfw>
 </metadata>
 <g>
  <path class="st0" d="M45.1,12.9c3.3,0,6.6,0.4,10,1.2c0.8,0.2,1.6-0.2,2-1l0,0c0.4-1-0.2-2-1-2.3h-0.2c-7-1.8-14.3-1.8-21.3,0
		c-1,0.2-1.6,1.2-1.4,2.1v0.2l0,0c0.4,0.8,1.2,1.2,2,1C38.4,13.5,41.7,12.9,45.1,12.9z">
  </path>
  <path class="st0" d="M66.5,17.6L66.5,17.6c-0.2,0.8,0.2,1.4,0.8,1.8c19.5,12.3,25.2,38.1,12.9,57.4s-37.9,25.4-57.4,13.1
		S-2.4,51.8,9.9,32.4c3.3-5.3,7.8-9.8,13.1-13.1c0.6-0.4,1-1,0.8-1.8l0,0c-0.2-1-1-1.6-2-1.4c-0.2,0-0.4,0.2-0.6,0.2
		C0.1,29.7-6.3,57.4,6.8,78.7s41,27.5,62.3,14.5c21.1-13.3,27.5-41,14.5-62.3C80,25,75.1,20.1,69.3,16.6c-0.8-0.6-2-0.2-2.3,0.6
		C66.7,17.2,66.5,17.4,66.5,17.6z">
  </path>
  <path class="st1" d="M54.4,29.5c-2.1-0.4-4.5-0.8-6.6-0.8c-1,0-1.8,0-2.7,0c-2.7,0-5.5,0.2-8,0.8c-9.4,1.6-18,6.1-24.8,12.5
		c-0.6,0.6-1,1.6-1,2.5l4.3,34.4c13.3,16.2,37.3,18.8,53.7,5.5c2-1.6,3.7-3.5,5.5-5.5l0.6-5.3c4.1-2.3,6.6-6.6,6.4-11.5
		c0-3.5-1.4-7-3.9-9.6l1-8.2c0.2-1-0.2-1.8-0.8-2.5c-3.9-3.7-8.4-6.8-13.3-9C61.5,31.5,58.1,30.3,54.4,29.5z">
  </path>
  <path class="st1" d="M41,71.5c-1.4,0.8-2.7,1-4.3,1c-5.5-0.2-9.8-4.5-9.6-10c0-0.2,0-0.2,0-0.4c-0.2-5.5,3.9-10,9.2-10.4
		c0.2,0,0.2,0,0.4,0c2.3,0,4.5,0.8,6.3,2.3c2.1,2,3.5,4.9,3.3,8C46.4,66,44.3,69.5,41,71.5z">
  </path>
  <path class="st1" d="M74.2,71.5c-1.4,0.8-2.9,1-4.3,1c-5.5-0.2-9.8-4.5-9.6-10c0-0.2,0-0.2,0-0.4c-0.2-5.5,3.9-10,9.2-10.4
		c0.2,0,0.2,0,0.4,0c2.3,0,4.5,0.8,6.3,2.3c2.1,2.1,3.5,4.9,3.3,8C79.6,66,77.5,69.5,74.2,71.5z">
  </path>
  <path class="st0" d="M29.4,31.3c-1-6.8-2.1-13.9-3.1-19.5c-3.3,0.2-6.1-2.3-6.1-5.7C20.1,2.7,22.6,0,25.9,0S32,2.5,32,5.7
		c0.2,2.3-1.2,4.5-3.1,5.5l7,18.4l0,0C33.7,30.1,31.6,30.7,29.4,31.3L29.4,31.3z">
  </path>
  <path class="st0" d="M54.4,29.5l7-18.4c-2.9-1.4-4.1-5.1-2.5-7.8c1.4-2.9,5.1-4.1,7.8-2.5s4.1,5.1,2.5,7.8c-1,2-3.1,3.3-5.3,3.1
		c-1,5.7-2,12.7-3.1,19.5l0,0C58.7,30.5,56.6,29.9,54.4,29.5L54.4,29.5z">
  </path>
  <path class="st2" d="M41,71.5c-1.4,0.8-2.7,1-4.3,1c-5.5-0.2-9.8-4.5-9.6-10c0-0.2,0-0.2,0-0.4c-0.2-5.5,3.9-10,9.2-10.4
		c0.2,0,0.2,0,0.4,0c2.3,0,4.5,0.8,6.3,2.3c2.1,2,3.5,4.9,3.3,8C46.4,66,44.3,69.5,41,71.5z">
  </path>
  <path class="st2" d="M74.2,71.5c-1.4,0.8-2.9,1-4.3,1c-5.5-0.2-9.8-4.5-9.6-10c0-0.2,0-0.2,0-0.4c-0.2-5.5,3.9-10,9.2-10.4
		c0.2,0,0.2,0,0.4,0c2.3,0,4.5,0.8,6.3,2.3c2.1,2.1,3.5,4.9,3.3,8C79.6,66,77.5,69.5,74.2,71.5z">
  </path>
  <path class="st0" d="M70.5,58.4c-0.8-1.4-2.7-1.8-4.1-1c-0.4,0.2-0.8,0.6-1,1l0,0c-0.6,1-1,2.1-1,3.3c0,1.4,0.2,2.5,1,3.5
		c0.6,1,1.4,1.4,2.5,1.6c1,0,2-0.6,2.5-1.4c0.8-1,1.2-2.3,1-3.5C71.6,60.8,71.2,59.4,70.5,58.4z">
  </path>
  <circle class="st2" cx="68.7" cy="60.4" r="1.2">
  </circle>
  <path class="st0" d="M37.4,58.4c-0.8-1.4-2.7-1.8-4.1-1c-0.4,0.2-0.8,0.6-1,1l0,0c-0.6,1-1,2.3-1,3.5c0,1.4,0.2,2.5,1,3.5
		c0.8,1.4,2.5,2,3.9,1.2c0.4-0.2,0.8-0.6,1.2-1.2c0.8-1,1.2-2.3,1-3.5C38.4,60.6,38,59.4,37.4,58.4z">
  </path>
  <circle class="st2" cx="35.5" cy="60.4" r="1.2">
  </circle>
 </g>
</svg>